<?xml version="1.0" encoding="UTF-8" standalone="no"?>
<svg
   xmlns:dc="http://purl.org/dc/elements/1.1/"
   xmlns:cc="http://creativecommons.org/ns#"
   xmlns:rdf="http://www.w3.org/1999/02/22-rdf-syntax-ns#"
   xmlns:svg="http://www.w3.org/2000/svg"
   xmlns="http://www.w3.org/2000/svg"
   id="svgHU"
   version="1.1"
   viewBox="0 0 47 11"
   height="22mm"
   width="94mm">
  <metadata
     id="metadata5276">
    <rdf:RDF>
      <cc:Work
         rdf:about="">
        <dc:format>image/svg+xml</dc:format>
        <dc:type
           rdf:resource="http://purl.org/dc/dcmitype/StillImage" />
        <dc:title></dc:title>
      </cc:Work>
    </rdf:RDF>
  </metadata>
  <defs
     id="defs5274" />
  <path
     d="m 0.76405334,0.46 H 2.0140533 v 3.79 h 4.55 V 0.46 h 1.25 v 9.26 h -1.25 V 5.31 h -4.55 V 9.72 H 0.76405334 Z"
     id="path H" />
  <path
     d="M 16.94704,9.72024 14.001484,2.004947 h 1.090372 l 2.444296,6.495723 2.449462,-6.495723 h 1.085205 L 18.130431,9.72024 Z"
     id="path V" />
  <path
     d="m 22.026851,2.038356 2.472829,-10e-7 v 0.84509 h -1.829869 l -0.801809,2.267394 2.037168,-0.03342 -4e-6,0.8785 -2.387959,0.0167 -0.985557,2.8 h 3.977522 v 0.904 h -5.322064 z"
     id="path E" />
  <path
     d="m 28.68066,6.320044 -0.793068,0.17282 -1.454264,-0.03341 V 9.72024 H 25.389464 V 2.004946 h 2.356446 c 0.881944,0 1.539957,0.184312 1.974039,0.552937 0.434082,0.368625 0.651123,0.925008 0.651123,1.669149 0,0.485759 -0.113688,0.888835 -0.341064,1.209229 -0.223931,0.320393 -0.918711,0.759758 -1.349348,0.883782 l 1.3,3.4 h -1 l -1.3,-3.5 z M 26.433328,2.862775 v 2.738851 h 1.312582 c 0.502984,0 0.881944,-0.115411 1.136881,-0.346232 0.258382,-0.234267 0.387573,-0.577054 0.387573,-1.028361 0,-0.451307 -0.129191,-0.790649 -0.387573,-1.018026 C 28.627854,2.978186 28.248894,2.862775 27.74591,2.862775 Z"
     id="path R" />
  <path
     style="stroke-width:0.98695636"
     d="m 33.369444,0.38874434 h 1.242429 V 5.9397955 q 0,1.4688537 0.532469,2.1176041 0.53247,0.6426214 1.725936,0.6426214 1.187345,0 1.719815,-0.6426214 0.532469,-0.6487504 0.532469,-2.1176041 V 0.38874434 h 1.242429 V 6.0928011 q 0,1.7871058 -0.887449,2.6990258 -0.881328,0.9119101 -2.607264,0.9119101 -1.732057,0 -2.619505,-0.9119101 -0.881329,-0.91192 -0.881329,-2.6990258 z"
     id="path U" />
  <path
     style="stroke-width:0.95427048"
     d="m 45.914421,2.3485027 v 0.982775 Q 45.35384,3.0568984 44.856638,2.9222037 44.359427,2.787509 43.896335,2.787509 q -0.80431,0 -1.243027,0.319277 -0.433841,0.3192769 -0.433841,0.9079441 0,0.4938821 0.287602,0.7483053 0.292478,0.249436 1.101665,0.4040849 l 0.5947,0.1247185 q 1.101666,0.2145137 1.623251,0.7582824 0.526454,0.5387806 0.526454,1.4467257 0,1.0825503 -0.711688,1.6412794 -0.706821,0.5587387 -2.07659,0.5587387 -0.516709,0 -1.101665,-0.1197256 -0.58008,-0.1197352 -1.204032,-0.3542051 V 8.1852836 q 0.599578,0.3442231 1.17479,0.5188302 0.575202,0.174607 1.130907,0.174607 0.843306,0 1.301521,-0.3392321 0.458216,-0.3392322 0.458216,-0.9678157 0,-0.5487568 -0.331474,-0.8580537 Q 44.666526,6.4043195 43.915833,6.2496696 L 43.316256,6.1299411 q -1.101666,-0.2244917 -1.594,-0.7034076 -0.492334,-0.4789159 -0.492334,-1.3319844 0,-0.9877631 0.677569,-1.5564751 0.682446,-0.568713 1.876724,-0.568713 0.511842,0 1.043172,0.09479 0.53133,0.09479 1.087034,0.2843565 z"
     id="path S" />
  <ellipse
     id="ellipse5266"
     cx="31.887884"
     cy="9.5"
     rx="1.2"
     ry="1.2"
     style="stroke-width:0.18454245" />
  <text
     id="text5269"
     xml:space="preserve"
     style="font-style:normal;font-variant:normal;font-weight:bold;font-stretch:normal;font-size:1.3px;line-height:1.25;font-family:sans-serif;letter-spacing:0px;word-spacing:0px;fill:#ffffff;fill-opacity:1;stroke:none;stroke-width:0.27000001"
     x="30.887884"
     y="10"><tspan
       id="tspan3729"
       x="30.887884"
       y="10"
       style="font-style:normal;font-variant:normal;font-weight:bold;font-stretch:normal;font-size:1.29999995px;font-family:sans-serif;fill:#ffffff;stroke-width:0.27000001">TM</tspan></text>
  <path
     id="path O"
     d="M 11.522834,9.8926969 A 20.147821,20.147821 0 0 1 8.8951831,3.3890338 1.0660222,1.0660222 0 0 1 9.4120563,2.3063989 20.147821,20.147821 0 0 1 11.03303,1.6514827 a 1.0660222,1.0660222 0 0 1 1.113985,0.4237258 20.147821,20.147821 0 0 1 2.62765,6.5036627 1.0660222,1.0660222 0 0 1 -0.506989,1.0786404 20.147821,20.147821 0 0 1 -1.620974,0.6549164 1.0660222,1.0660222 0 0 1 -1.123868,-0.4197311"
     style="fill:#ffffff;stroke:#dd0000;stroke-width:0.54507023" />
</svg>
