<?xml version="1.0" standalone="no"?>
<!DOCTYPE svg PUBLIC "-//W3C//DTD SVG 20010904//EN"
 "http://www.w3.org/TR/2001/REC-SVG-20010904/DTD/svg10.dtd">
<svg version="1.0" xmlns="http://www.w3.org/2000/svg"
 width="520.000000pt" height="520.000000pt" viewBox="0 0 520.000000 520.000000"
 preserveAspectRatio="xMidYMid meet">
<metadata>
Created by potrace 1.11, written by Peter Selinger 2001-2013
</metadata>
<g transform="translate(0.000000,520.000000) scale(0.100000,-0.100000)"
fill="#000000" stroke="none">
<path d="M2179 5190 c-134 -21 -937 -347 -1057 -429 -137 -93 -246 -248 -294
-418 -36 -127 -31 -268 16 -468 287 -1234 721 -2314 1349 -3364 131 -218 193
-296 292 -366 139 -99 265 -139 445 -138 142 0 140 -1 473 127 227 87 474 191
607 254 81 38 107 57 185 136 76 76 99 107 138 186 64 129 81 199 81 340 0 98
-6 139 -38 275 -91 395 -181 714 -321 1140 -147 447 -378 1000 -620 1480 -221
438 -491 904 -584 1006 -94 105 -233 189 -366 224 -74 19 -232 27 -306 15z
m246 -315 c62 -18 159 -79 202 -128 18 -21 91 -135 162 -255 589 -991 1025
-2078 1277 -3182 20 -85 40 -179 44 -207 21 -125 -37 -281 -139 -375 -52 -48
-82 -65 -276 -147 -300 -128 -649 -261 -715 -272 -114 -18 -265 29 -355 112
-85 78 -380 585 -599 1028 -384 778 -667 1566 -870 2426 -50 213 -57 261 -46
334 23 144 121 278 245 335 279 128 813 338 890 349 42 6 121 -2 180 -18z"/>
</g>
</svg>
